<svg width="690" height="370" viewBox="0 0 690 370" fill="none" xmlns="http://www.w3.org/2000/svg">
<g clip-path="url(#clip0_1203_15515)">
<path d="M35.93 258.89V362.31H75.97V258.89H35.93ZM67.04 307.47H44.86V272.46H67.04V307.47Z" fill="#F2F9FF"/>
<path d="M506.77 258.89V362.31H546.81V258.89H506.77ZM650.37 258.89V362.31H690.41V258.89H650.37ZM537.88 307.47H515.7V272.46H537.88V307.47Z" fill="#F2F9FF"/>
<path d="M40.03 362.31H31.61C14.15 362.31 0 348.16 0 330.7C0 313.24 14.15 299.09 31.61 299.09H40.03V362.31Z" fill="#F2F9FF"/>
<path d="M586.84 299.09H546.81V362.31H586.84V299.09Z" fill="#F2F9FF"/>
<path d="M112.7 272.46H72.67V362.32H112.7V272.46Z" fill="#F2F9FF"/>
<path d="M171.85 265.87H131.82V362.32H171.85V265.87Z" fill="#F2F9FF"/>
<path d="M466.02 265.87H425.99V362.32H466.02V265.87Z" fill="#F2F9FF"/>
<path d="M654.15 265.87H614.12V362.32H654.15V265.87Z" fill="#F2F9FF"/>
<path d="M259.69 151.18H161.33V362.31H259.69V151.18Z" fill="#F2F9FF"/>
<path d="M439.03 191.79H340.67V362.32H439.03V191.79Z" fill="#F2F9FF"/>
<path d="M141.92 247.51H92.69V362.31H141.92V247.51Z" fill="#F2F9FF"/>
<path d="M621.11 247.51H571.88V362.31H621.11V247.51Z" fill="#F2F9FF"/>
<path d="M509.27 247.51H460.04V362.31H509.27V247.51Z" fill="#F2F9FF"/>
<path d="M155.49 185.24C155.45 188.06 154.29 190.6 152.44 192.45C150.55 194.32 147.96 195.49 145.08 195.49H26.7298C20.9798 195.49 16.3198 190.84 16.3198 185.08C16.3198 182.2 17.4898 179.61 19.3698 177.72C21.2598 175.83 23.8498 174.67 26.7298 174.67H34.9998C38.2998 174.67 40.9798 171.99 40.9798 168.69C40.9798 165.39 38.2998 162.71 34.9998 162.71H31.8698C27.4898 162.71 23.6298 159.46 23.2798 155.1C23.0698 152.56 24.0298 150.2 25.6798 148.56C27.1798 147.06 29.2598 146.13 31.5498 146.13H105.6C110.18 146.13 113.9 149.84 113.9 154.41C113.9 156.7 112.97 158.77 111.47 160.28C109.97 161.78 107.89 162.71 105.6 162.71H102.93C99.6298 162.71 96.9498 165.39 96.9498 168.69C96.9498 171.99 99.6298 174.67 102.93 174.67H144.7C150.52 174.67 155.57 179.43 155.49 185.24Z" fill="#F2F9FF"/>
<path d="M669.17 167.55C669.14 169.78 668.22 171.79 666.75 173.26C665.26 174.74 663.21 175.67 660.93 175.67H567.3C562.75 175.67 559.06 171.99 559.06 167.43C559.06 165.15 559.98 163.1 561.48 161.61C562.97 160.12 565.02 159.19 567.3 159.19H573.85C576.46 159.19 578.58 157.07 578.58 154.46C578.58 151.85 576.46 149.73 573.85 149.73H571.38C567.92 149.73 564.86 147.16 564.58 143.71C564.42 141.7 565.17 139.83 566.48 138.54C567.67 137.35 569.31 136.62 571.12 136.62H629.71C633.33 136.62 636.27 139.56 636.27 143.17C636.27 144.98 635.54 146.62 634.35 147.81C633.16 149 631.52 149.73 629.71 149.73H627.6C624.99 149.73 622.87 151.85 622.87 154.46C622.87 157.07 624.99 159.19 627.6 159.19H660.65C665.24 159.19 669.24 162.95 669.17 167.55Z" fill="#F2F9FF"/>
<path d="M330.002 51.2688C330.062 53.6653 331.754 55.833 334.453 57.4082C337.204 59.0037 340.982 60 345.187 60H517.808C526.197 60 533 56.0417 533 51.1409C533 48.6905 531.294 46.4824 528.542 44.8803C525.791 43.2781 522.012 42.2818 517.808 42.2818H505.735C500.917 42.2818 497.019 40.0064 497.019 37.1992C497.019 34.3921 500.924 32.1167 505.735 32.1167H510.299C516.682 32.1167 522.319 29.3499 522.832 25.6406C523.132 23.473 521.739 21.4736 519.327 20.0734C517.128 18.7876 514.11 18 510.765 18H402.756C396.073 18 390.656 21.1572 390.656 25.0482C390.656 27.0005 392.009 28.7575 394.201 30.0365C396.393 31.3156 399.418 32.1032 402.756 32.1032H406.647C411.465 32.1032 415.363 34.3786 415.363 37.1858C415.363 39.9929 411.458 42.2683 406.647 42.2683H345.72C337.238 42.275 329.875 46.3209 330.002 51.2688Z" fill="#F2F9FF"/>
</g>
<g clip-path="url(#clip1_1203_15515)">
<g opacity="0.7">
<path d="M405.812 261.317C376.592 269.411 321.377 325.867 355.615 352.348C389.84 378.829 492.081 237.413 405.812 261.317Z" fill="url(#paint0_radial_1203_15515)"/>
</g>
<path d="M369.662 232.04H160.601C151.608 232.04 144.307 225.941 144.307 218.429V72.1343C144.307 66.0488 150.21 61.118 157.495 61.118H372.785C380.07 61.118 385.973 66.0488 385.973 72.1343V218.429C385.957 225.955 378.671 232.04 369.662 232.04Z" fill="white"/>
<path d="M369.662 233.1H160.601C150.925 233.1 143.038 226.525 143.038 218.429V72.1342C143.038 65.4783 149.527 60.072 157.479 60.072H372.768C380.737 60.072 387.209 65.4919 387.209 72.1342V218.429C387.225 226.525 379.354 233.1 369.662 233.1ZM157.495 62.1775C150.925 62.1775 145.575 66.6465 145.575 72.1342V218.429C145.575 225.357 152.324 230.981 160.601 230.981H369.662C377.956 230.981 384.688 225.343 384.688 218.429V72.1342C384.688 66.6465 379.338 62.1775 372.768 62.1775H157.495Z" fill="#0088FF"/>
<path d="M357.677 67.7195C356.767 67.7195 356.019 68.3308 356.019 69.1051C356.019 69.8658 356.767 70.4906 357.677 70.4906C358.588 70.4906 359.336 69.8658 359.336 69.1051C359.32 68.3308 358.588 67.7195 357.677 67.7195Z" fill="#2B1D40"/>
<path d="M364.654 67.7195C363.743 67.7195 362.995 68.3308 362.995 69.1051C362.995 69.8658 363.743 70.4906 364.654 70.4906C365.564 70.4906 366.312 69.8658 366.312 69.1051C366.296 68.3308 365.564 67.7195 364.654 67.7195Z" fill="url(#paint1_linear_1203_15515)"/>
<path d="M371.63 67.7195C370.719 67.7195 369.971 68.3308 369.971 69.1051C369.971 69.8658 370.719 70.4906 371.63 70.4906C372.54 70.4906 373.289 69.8658 373.289 69.1051C373.272 68.3308 372.54 67.7195 371.63 67.7195Z" fill="url(#paint2_linear_1203_15515)"/>
<path d="M317.007 75.6796H145.705V77.785H317.007V75.6796Z" fill="#0088FF"/>
<g opacity="0.3">
<path d="M177.794 182.398H165.171V183.885H177.794V182.398Z" fill="#A6AAAE"/>
<path d="M208.25 182.398H183.254V183.885H208.25V182.398Z" fill="#A6AAAE"/>
<path d="M191.636 177.159H165.171V178.647H191.636V177.159Z" fill="#A6AAAE"/>
<path d="M208.267 177.159H195.193V178.647H208.267V177.159Z" fill="#A6AAAE"/>
</g>
<g opacity="0.3">
<path d="M177.794 206.021H165.171V207.508H177.794V206.021Z" fill="#A6AAAE"/>
<path d="M208.25 206.021H183.254V207.508H208.25V206.021Z" fill="#A6AAAE"/>
<path d="M191.636 200.782H165.171V202.27H191.636V200.782Z" fill="#A6AAAE"/>
<path d="M208.267 200.782H195.193V202.27H208.267V200.782Z" fill="#A6AAAE"/>
</g>
<path d="M225.49 102.644H140.894V104.898H225.49V102.644Z" fill="#1E1916"/>
<path d="M167.847 94.6997H140.894V96.9534H167.847V94.6997Z" fill="#1E1916"/>
<path d="M198.361 94.6997H179.502V96.9534H198.361V94.6997Z" fill="#1E1916"/>
<path d="M197.39 86.7555H140.894V89.0092H197.39V86.7555Z" fill="#1E1916"/>
<path d="M232.842 86.7555H204.958V89.0092H232.842V86.7555Z" fill="#1E1916"/>
<path d="M233.138 171.257H86.798C78.0969 171.257 71.0281 164.202 71.0281 155.487V58.7095C71.0281 51.263 77.0582 45.2329 84.5047 45.2329H235.432C242.878 45.2329 248.908 51.263 248.908 58.7095V155.501C248.908 164.202 241.853 171.257 233.138 171.257Z" fill="white"/>
<path d="M233.139 172.107H86.7981C77.6384 172.107 70.1918 164.661 70.1918 155.501V58.7095C70.1918 50.8178 76.6131 44.3965 84.5048 44.3965H235.432C243.324 44.3965 249.745 50.8178 249.745 58.7095V155.501C249.745 164.661 242.298 172.107 233.139 172.107ZM84.5048 46.0693C77.5439 46.0693 71.8646 51.7351 71.8646 58.7095V155.501C71.8646 163.73 78.5557 170.421 86.7846 170.421H233.139C241.367 170.421 248.059 163.73 248.059 155.501V58.7095C248.059 51.7486 242.393 46.0693 235.418 46.0693H84.5048Z" fill="#FFAE06"/>
<path d="M221.456 49.8196C220.782 49.8196 220.242 50.3592 220.242 51.0337C220.242 51.7082 220.782 52.2478 221.456 52.2478C222.131 52.2478 222.67 51.7082 222.67 51.0337C222.67 50.3727 222.117 49.8196 221.456 49.8196Z" fill="url(#paint3_linear_1203_15515)"/>
<path d="M226.582 49.8196C225.908 49.8196 225.368 50.3592 225.368 51.0337C225.368 51.7082 225.908 52.2478 226.582 52.2478C227.257 52.2478 227.796 51.7082 227.796 51.0337C227.796 50.3727 227.257 49.8196 226.582 49.8196Z" fill="url(#paint4_linear_1203_15515)"/>
<path d="M231.722 49.8196C231.048 49.8196 230.508 50.3592 230.508 51.0337C230.508 51.7082 231.048 52.2478 231.722 52.2478C232.397 52.2478 232.936 51.7082 232.936 51.0337C232.936 50.3727 232.397 49.8196 231.722 49.8196Z" fill="url(#paint5_linear_1203_15515)"/>
<path d="M248.909 58.696H117.218V60.3823H248.909V58.696Z" fill="#FFAE06"/>
<g clip-path="url(#clip2_1203_15515)">
<path d="M114.05 95.4314C112.807 94.1878 112.807 92.1743 114.05 90.9307C115.292 89.687 117.304 89.687 118.546 90.9307L135.548 107.939C136.791 109.182 136.791 111.196 135.548 112.451C134.306 113.695 132.295 113.695 131.052 112.451L114.05 95.4314Z" fill="#FFAE06"/>
<path d="M135.549 95.4314C136.791 94.1877 136.791 92.1742 135.549 90.9306C134.294 89.687 132.295 89.687 131.041 90.9306L114.05 107.939C112.808 109.182 112.819 111.196 114.05 112.451C115.292 113.695 117.304 113.695 118.546 112.451L135.549 95.4314Z" fill="#FFAE06"/>
<path d="M187.81 95.4317C186.568 94.188 186.568 92.1745 187.81 90.9309C189.065 89.6873 191.064 89.6873 192.318 90.9309L209.309 107.939C210.551 109.183 210.54 111.196 209.309 112.452C208.067 113.695 206.055 113.695 204.813 112.452L187.81 95.4317Z" fill="#FFAE06"/>
<path d="M209.309 95.4317C210.551 94.188 210.551 92.1745 209.309 90.9309C208.067 89.6873 206.055 89.6873 204.813 90.9309L187.81 107.939C186.568 109.183 186.568 111.196 187.81 112.452C189.053 113.695 191.064 113.695 192.307 112.452L209.309 95.4317Z" fill="#FFAE06"/>
<path d="M173.695 129.116C175.458 129.116 176.878 127.695 176.878 125.93C176.878 124.166 175.458 122.744 173.707 122.744H149.676C147.913 122.744 146.493 124.177 146.493 125.942C146.493 127.695 147.913 129.116 149.676 129.128H173.695V129.116Z" fill="#FFAE06"/>
</g>
<mask id="mask0_1203_15515" style="mask-type:luminance" maskUnits="userSpaceOnUse" x="-30" y="84" width="433" height="290">
<path d="M-29.2546 84.5756H402.205V373.587H-29.2546V84.5756Z" fill="white"/>
</mask>
<g mask="url(#mask0_1203_15515)">
<g clip-path="url(#clip3_1203_15515)">
<path d="M253.827 252.264C253.827 237.539 275.152 203.151 275.152 203.151L325.339 204.338L350.216 205.076L363.32 240.186L354.619 319.509L369.464 360.129H249.817L260.884 322.308C260.892 322.3 253.827 266.98 253.827 252.264Z" fill="#407BFF"/>
<g opacity="0.2">
<path d="M359.383 332.934C347.185 331.523 335.396 327.016 327.416 317.689C319.436 308.362 316.71 300.414 311.28 289.403C310.799 290.526 303.373 300.278 298.321 305.731C293.268 311.185 287.005 315.419 280.38 318.787C273.676 322.196 266.546 324.762 259.208 326.406L261.053 319.341L309.356 266.707L357.137 325.099L359.383 332.934Z" fill="black"/>
</g>
<path d="M305.923 250.708C305.923 250.708 312.989 240.603 314.127 238.109C315.266 235.623 315.354 227.314 316.317 227.611C317.279 227.908 320.182 230.249 320.198 231.565L335.452 207.995C335.452 207.995 337.673 208.051 337.842 209.743C337.842 209.743 341.034 210.345 340.071 215.71C339.109 221.075 337.922 221.989 337.922 221.989C337.922 221.989 338.419 224.572 336.182 228.886C333.952 233.201 330.295 242.648 330.295 242.648C330.295 242.648 322.733 262.088 317.929 266.266C313.125 270.444 311.722 270.372 311.722 270.372L306.236 277.815L294.479 265.617L305.923 250.708Z" fill="#FDBBB5"/>
<path d="M316.854 254.581L360.281 287.206L358.998 256.113L387.805 247.251C388.19 265.969 394.1 330.28 369.616 331.539C345.533 332.774 307.214 268.319 307.214 268.319L316.854 254.581Z" fill="#FDBBB5"/>
<path d="M350.216 205.068C350.216 205.068 368.718 204.602 379.929 223.208C386.947 234.845 396.634 259.858 396.634 259.858L358.051 271.022C357.346 270.212 350.216 205.068 350.216 205.068Z" fill="#407BFF"/>
<path d="M254.87 258.928L255.407 287.334L299.411 258.671C300.414 259.971 306.388 277.606 306.388 277.606C306.388 277.606 267.533 328.002 245.182 328.01C226.231 328.018 226.4 303.574 226.119 286.484C225.87 271.351 228.18 253.932 228.18 253.932L254.87 258.928Z" fill="#FDBBB5"/>
<path opacity="0.3" d="M307.607 275.954C307.607 275.954 301.905 267.71 301.793 267.389C301.681 267.068 294.471 261.887 294.471 261.887L297.807 259.714C297.807 259.714 304.424 262.312 304.849 262.633C305.274 262.954 310.061 272.61 310.061 272.61L307.607 275.954Z" fill="black"/>
<path d="M309.484 243.867C309.484 243.867 302.419 233.762 301.28 231.268C300.141 228.782 300.053 220.473 299.09 220.77C298.128 221.067 295.225 223.409 295.209 224.724L279.955 201.154C279.955 201.154 277.734 201.21 277.565 202.902C277.565 202.902 274.374 203.504 275.336 208.869C276.298 214.234 277.485 215.148 277.485 215.148C277.485 215.148 276.988 217.731 279.226 222.045C281.463 226.36 285.112 235.807 285.112 235.807C285.112 235.807 292.675 255.247 297.478 259.425C302.282 263.604 303.686 263.531 303.686 263.531L310.077 272.802L320.928 258.784L309.484 243.867Z" fill="#FDBBB5"/>
<path d="M299.54 230.939C297.896 228.678 296.316 226.376 294.72 224.074C294.551 223.834 294.391 223.593 294.222 223.353C293.998 223.032 294.519 222.735 294.744 223.048C296.075 224.973 297.414 226.889 298.762 228.806C299.195 229.415 299.628 230.025 300.061 230.626C300.285 230.955 299.764 231.252 299.54 230.939Z" fill="#FF807B"/>
<path d="M277.245 215.493C277.373 214.274 278.584 213.625 279.739 213.777C281.447 214.002 282.361 215.886 283.139 217.201C285.537 221.291 287.943 225.374 290.341 229.464C290.533 229.8 290.02 230.097 289.82 229.768C287.935 226.56 286.05 223.353 284.166 220.145C283.316 218.693 282.538 217.129 281.543 215.766C281.078 215.124 280.445 214.467 279.619 214.37C278.873 214.29 277.942 214.659 277.854 215.493C277.806 215.878 277.197 215.878 277.245 215.493Z" fill="#FF807B"/>
<path d="M291.921 226.28C288.152 220.738 284.495 215.1 281.062 209.342C279.867 207.337 278.696 205.308 277.638 203.231C277.461 202.886 277.983 202.581 278.159 202.926C281.88 210.248 286.54 217.145 291.095 223.97C291.544 224.636 291.985 225.309 292.442 225.975C292.659 226.296 292.137 226.601 291.921 226.28Z" fill="#FF807B"/>
<path d="M316.221 236.529C317.865 234.267 319.445 231.966 321.04 229.664C321.209 229.423 321.369 229.183 321.538 228.942C321.754 228.63 322.275 228.926 322.059 229.247C320.728 231.172 319.388 233.089 318.041 235.005C317.608 235.615 317.175 236.224 316.742 236.826C316.517 237.146 315.996 236.85 316.221 236.529Z" fill="#FF807B"/>
<path d="M337.569 222.334C337.489 221.548 336.655 221.171 335.949 221.195C335.107 221.219 334.425 221.877 333.952 222.51C332.918 223.89 332.132 225.502 331.258 226.985C329.373 230.193 327.488 233.401 325.604 236.609C325.411 236.946 324.89 236.641 325.082 236.304C327.48 232.214 329.886 228.132 332.284 224.042C333.054 222.735 333.928 220.923 335.588 220.634C336.767 220.425 338.042 221.091 338.171 222.334C338.211 222.719 337.609 222.719 337.569 222.334Z" fill="#FF807B"/>
<path d="M323.013 232.102C328.483 225.141 333.246 217.659 337.248 209.767C337.425 209.422 337.946 209.727 337.77 210.072C333.744 218.011 328.94 225.526 323.438 232.527C323.198 232.832 322.781 232.407 323.013 232.102Z" fill="#FF807B"/>
<path opacity="0.3" d="M322.917 258.992C322.917 258.992 318.458 255.969 318.145 255.247C317.825 254.517 310.077 244.645 310.077 244.645L311.705 242.183L324.617 255.648L322.917 258.992Z" fill="black"/>
<path d="M360.457 286.636C365.357 289.419 369.576 293.252 372.936 297.776C373.169 298.088 372.647 298.385 372.415 298.08C369.119 293.645 364.956 289.892 360.153 287.157C359.816 286.965 360.121 286.444 360.457 286.636Z" fill="#FF807B"/>
<path d="M255.992 287.198C251.726 289.555 248.173 293.052 245.743 297.278C245.551 297.615 245.029 297.31 245.222 296.974C247.7 292.667 251.341 289.082 255.688 286.676C256.033 286.492 256.337 287.013 255.992 287.198Z" fill="#FF807B"/>
<path d="M275.152 203.151C275.152 203.151 255.335 201.539 243.265 219.591C235.711 230.883 226.111 255.656 226.111 255.656L264.124 268.624C264.87 267.846 275.152 203.151 275.152 203.151Z" fill="#407BFF"/>
<path d="M359.054 271.567C360.089 258.615 359.744 245.575 358.011 232.704C357.963 232.327 358.541 232.158 358.589 232.543C360.337 245.471 360.698 258.559 359.655 271.567C359.623 271.952 359.022 271.96 359.054 271.567Z" fill="#263238"/>
<path d="M255.632 266.707C254.661 255.616 255.535 244.42 258.206 233.61C258.302 233.233 258.88 233.393 258.783 233.77C256.129 244.533 255.271 255.672 256.233 266.707C256.265 267.1 255.664 267.092 255.632 266.707Z" fill="#263238"/>
<path d="M257.989 234.139C257.179 233.089 256.361 232.038 255.551 230.987C255.455 230.859 255.423 230.691 255.551 230.562C255.656 230.458 255.88 230.434 255.976 230.562C256.786 231.613 257.604 232.663 258.414 233.714C258.511 233.842 258.543 234.011 258.414 234.139C258.31 234.243 258.086 234.267 257.989 234.139Z" fill="#263238"/>
<path d="M329.501 339.294C317.271 335.942 304.865 333.279 292.338 331.322C291.953 331.266 292.121 330.681 292.498 330.745C305.025 332.702 317.432 335.364 329.662 338.716C330.039 338.821 329.878 339.398 329.501 339.294Z" fill="#263238"/>
<path d="M358.092 136.282C360.81 145.369 363.689 151.664 369.135 157.936C371.019 160.109 373.249 162.387 373.369 165.258C373.489 168.313 371.043 170.992 368.212 172.131C365.382 173.269 362.222 173.205 359.174 173.117C358.95 176.501 356.8 179.701 353.745 181.185C350.689 182.668 346.848 182.38 344.049 180.455C343.608 184.288 340.857 187.769 337.224 189.092C333.591 190.408 329.253 189.501 326.454 186.847L322.604 167.271L358.092 136.282Z" fill="#263238"/>
<path d="M252.263 167.23C252.648 164.712 255.656 163.91 257.933 162.94C263.21 160.694 266.474 155.048 267.653 149.282C268.824 143.516 268.263 137.525 267.926 131.623C267.589 125.72 268.872 119.962 270.965 114.485C273.058 109.015 280.124 101.004 286.074 103.61L319.918 180.535C316.469 185.876 309.308 188.282 303.381 186.093C297.839 188.491 290.774 186.534 287.069 181.57C281.11 183.101 274.518 181.939 269.345 178.434C267.741 177.343 266.105 175.306 267.076 173.614C263.114 174.817 258.631 174.151 255.102 171.858C253.498 170.831 251.975 169.131 252.263 167.23Z" fill="#263238"/>
<path d="M289.86 204.915C305.386 201.21 304.977 189.71 302.282 178.875L330.512 157.31C327.785 171.224 323.39 195.628 333.118 204.915C333.118 204.915 309.372 217.474 299.211 213.905C289.05 210.345 289.86 204.915 289.86 204.915Z" fill="#FDBBB5"/>
<path opacity="0.2" d="M318.33 176.878C317.704 183.085 309.556 189.597 303.63 190.448C303.413 187.857 302.964 185.283 302.29 182.773L318.009 169.372C318.57 171.834 318.683 174.376 318.33 176.878Z" fill="black"/>
<path d="M339.454 134.037C337.457 155.923 337.112 165.226 325.892 176.132C309.043 192.557 283.123 185.323 278.672 163.261C274.638 143.412 278.568 110.964 299.868 103C321.169 95.0368 341.555 112.175 339.454 134.037Z" fill="#FDBBB5"/>
<path d="M312.836 140.613C313.141 142.939 312.227 145.056 310.791 145.337C309.364 145.617 307.96 143.965 307.664 141.64C307.359 139.314 308.273 137.197 309.709 136.916C311.136 136.635 312.54 138.287 312.836 140.613Z" fill="#263238"/>
<path d="M291.279 141.656C291.568 143.909 290.646 145.97 289.218 146.251C287.791 146.532 286.403 144.936 286.123 142.682C285.834 140.429 286.756 138.367 288.184 138.087C289.603 137.798 290.99 139.402 291.279 141.656Z" fill="#263238"/>
<path d="M314.512 131.551C314.24 131.615 313.943 131.575 313.702 131.406C309.909 128.72 306.244 130.316 306.204 130.332C305.659 130.572 305.049 130.324 304.841 129.77C304.64 129.209 304.913 128.559 305.466 128.311C305.659 128.223 310.254 126.218 314.961 129.554C315.427 129.883 315.531 130.572 315.178 131.086C315.01 131.326 314.769 131.487 314.512 131.551Z" fill="#263238"/>
<path d="M281.776 131.126C281.543 131.07 281.343 130.925 281.222 130.693C280.974 130.211 281.158 129.554 281.64 129.225C286.411 125.921 290.349 127.717 290.517 127.797C290.982 128.022 291.151 128.632 290.886 129.177C290.622 129.714 290.028 129.971 289.563 129.754C289.411 129.682 286.331 128.335 282.538 130.965C282.297 131.134 282.024 131.182 281.776 131.126Z" fill="#263238"/>
<path d="M310.053 136.868L304.841 136.571C304.841 136.571 308.233 139.819 310.053 136.868Z" fill="#263238"/>
<path d="M288.673 138.047L283.46 137.75C283.46 137.75 286.86 140.99 288.673 138.047Z" fill="#263238"/>
<path d="M297.494 94.0665C344.747 82.3015 355.365 122.52 355.365 122.52C357.009 130.364 358.252 140.364 361.781 147.486L327.793 174.777L333.968 151.921C322.957 151.44 294.72 108.125 294.72 108.125C294.72 108.125 294.014 102.92 294.72 109.561L284.406 110.836C279.041 100.506 297.494 94.0665 297.494 94.0665Z" fill="#263238"/>
<path d="M342.862 151.408C341.082 156.332 337.393 159.884 333.728 161.52C328.21 163.991 323.591 155.241 324.537 149.106C325.387 143.588 330.448 139.137 336.27 139.282C341.996 139.426 344.899 145.778 342.862 151.408Z" fill="#FDBBB5"/>
<path opacity="0.2" d="M329.589 154.014C329.597 154.014 329.614 154.014 329.622 154.014C329.79 153.998 329.902 153.846 329.886 153.685C329.67 151.664 330.271 149.595 331.538 148.007C332.813 146.419 334.698 145.377 336.719 145.152C336.887 145.136 337 144.984 336.984 144.823C336.968 144.655 336.815 144.543 336.655 144.559C334.473 144.799 332.444 145.922 331.073 147.63C329.702 149.338 329.052 151.568 329.293 153.749C329.309 153.894 329.445 154.014 329.589 154.014Z" fill="black"/>
<path d="M294.896 105.045C295.129 113.466 298.208 121.558 303.63 128.014C303.63 128.014 288.232 119.906 283.059 109.689L294.896 105.045Z" fill="#263238"/>
<path opacity="0.2" d="M302.362 140.188C302.475 140.188 302.579 140.124 302.635 140.02C302.707 139.867 302.643 139.691 302.491 139.619C301.2 139.001 300.221 137.75 299.949 136.338C299.916 136.178 299.764 136.066 299.596 136.098C299.435 136.13 299.323 136.29 299.355 136.451C299.66 138.039 300.759 139.458 302.226 140.156C302.274 140.18 302.314 140.188 302.362 140.188Z" fill="black"/>
<path d="M300.967 164.047C298.425 163.245 295.778 162.932 293.116 163.084C292.338 163.132 292.37 161.929 293.14 161.881C295.899 161.721 298.673 162.066 301.304 162.892C302.05 163.124 301.705 164.279 300.967 164.047Z" fill="#263238"/>
<path d="M301.817 103.145C308.69 110.098 316.293 116.313 324.489 121.646C328.403 124.189 332.452 126.49 336.591 128.664C340.248 130.588 343.945 132.481 347.337 134.855C350.962 137.381 354.178 140.477 356.247 144.422C356.423 144.767 355.91 145.072 355.726 144.727C351.78 137.205 343.905 133.179 336.687 129.393C328.483 125.087 320.672 120.187 313.422 114.396C309.203 111.028 305.185 107.411 301.392 103.57C301.119 103.289 301.544 102.864 301.817 103.145Z" fill="black"/>
<path d="M298.882 107.395C307.96 117.155 318.626 124.958 330.391 131.174C335.572 133.908 340.897 136.619 345.244 140.613C349.559 144.583 352.349 149.739 353.336 155.514C354.467 162.146 353.448 169.019 351.219 175.314C351.09 175.675 350.513 175.523 350.641 175.154C354.643 163.854 354.499 150.381 345.38 141.567C341.098 137.429 335.725 134.67 330.512 131.912C324.946 128.976 319.549 125.793 314.464 122.071C308.69 117.837 303.333 113.065 298.457 107.828C298.2 107.54 298.617 107.115 298.882 107.395Z" fill="black"/>
<path d="M284.126 109.336C273.78 116.185 273.732 129.923 274.021 140.958C274.029 141.343 273.427 141.343 273.419 140.958C273.123 129.682 273.275 115.792 283.821 108.815C284.15 108.598 284.446 109.119 284.126 109.336Z" fill="black"/>
</g>
</g>
<path d="M96.2025 217.319L89.0155 208.936L77.941 208.745L86.3259 201.559L86.5169 190.48L93.7039 198.87L104.778 199.054L95.9159 206.012L96.2025 217.319Z" fill="#1090FF"/>
<rect x="121.702" y="359.668" width="279.444" height="3.86328" rx="1.93164" fill="#99CFFF"/>
<rect x="90.8561" y="359.668" width="28.3307" height="3.86328" rx="1.93164" fill="#99CFFF"/>
<path d="M369.673 248.591L364.012 253.458L371.606 262.289L377.266 257.421L369.673 248.591Z" fill="#263238"/>
<path d="M374.984 248.648L363.278 258.682L355.096 249.126C358.321 244.587 362.143 241.182 366.802 239.092L374.984 248.648Z" fill="#455A64"/>
<path d="M365.25 257.01C365.19 257.069 363.219 254.919 360.83 252.172C358.441 249.424 356.589 247.155 356.649 247.095C356.709 247.035 358.68 249.186 361.069 251.933C363.458 254.68 365.309 256.95 365.25 257.01Z" fill="#263238"/>
<path d="M367.519 255.098C367.459 255.098 366.982 254.561 366.205 253.665C365.429 252.769 364.354 251.455 363.159 250.022C362.024 248.648 361.009 247.334 360.173 246.319C359.814 245.901 359.516 245.542 359.277 245.184C359.038 244.885 358.978 244.766 358.978 244.766C359.098 244.647 361.069 246.916 363.458 249.783C364.652 251.216 365.668 252.53 366.444 253.486C367.101 254.441 367.519 255.039 367.519 255.098Z" fill="#263238"/>
<path d="M370.445 252.53C370.386 252.53 369.908 251.993 369.131 251.037C368.355 250.081 367.28 248.768 366.085 247.334C364.951 245.901 363.935 244.646 363.099 243.571C362.741 243.153 362.442 242.735 362.203 242.437C361.964 242.138 361.905 242.019 361.905 242.019C361.964 241.959 362.502 242.556 363.278 243.452C364.055 244.408 365.189 245.662 366.324 247.155C367.519 248.588 368.534 249.962 369.31 250.918C370.027 251.873 370.505 252.47 370.445 252.53Z" fill="#263238"/>
<path d="M373.133 250.141C373.073 250.201 371.102 247.991 368.773 245.244C366.444 242.496 364.533 240.167 364.652 240.167C364.772 240.167 366.683 242.317 369.012 245.065C371.341 247.812 373.253 250.082 373.133 250.141Z" fill="#263238"/>
<path d="M470.152 255.361L464.994 249.963L456.574 258.01L461.732 263.407L470.152 255.361Z" fill="#263238"/>
<path d="M470.425 260.653L459.734 249.544L468.813 240.824C473.471 243.81 477.114 247.454 479.444 251.933L470.425 260.653Z" fill="#455A64"/>
<path d="M461.526 251.395C461.466 251.336 463.557 249.245 466.125 246.737C468.753 244.228 470.903 242.258 470.963 242.317C471.022 242.377 468.932 244.467 466.364 246.976C463.736 249.484 461.586 251.455 461.526 251.395Z" fill="#263238"/>
<path d="M463.557 253.546C463.557 253.486 464.034 253.008 464.93 252.172C465.826 251.336 467.021 250.201 468.394 248.947C469.708 247.752 470.963 246.617 471.918 245.781C472.336 245.423 472.695 245.124 472.993 244.826C473.232 244.587 473.352 244.467 473.411 244.467C473.531 244.587 471.381 246.677 468.633 249.186C467.26 250.44 466.005 251.575 465.11 252.351C464.214 253.068 463.616 253.546 463.557 253.546Z" fill="#263238"/>
<path d="M466.244 256.353C466.244 256.293 466.781 255.755 467.677 254.919C468.573 254.083 469.827 252.948 471.201 251.694C472.575 250.5 473.769 249.365 474.785 248.529C475.203 248.17 475.561 247.872 475.86 247.573C476.099 247.334 476.278 247.274 476.278 247.215C476.338 247.274 475.8 247.812 474.904 248.648C474.008 249.484 472.754 250.679 471.38 251.933C470.007 253.187 468.693 254.322 467.797 255.098C466.901 255.875 466.304 256.353 466.244 256.353Z" fill="#263238"/>
<path d="M468.812 258.921C468.753 258.861 470.843 256.771 473.471 254.262C476.099 251.754 478.309 249.783 478.368 249.843C478.428 249.902 476.338 251.993 473.71 254.501C471.022 257.01 468.872 258.981 468.812 258.921Z" fill="#263238"/>
<path d="M422.465 229.536H413.626V243.333H422.465V229.536Z" fill="#263238"/>
<path d="M427.244 233.657H409.028V218.785C415.418 217.233 421.51 217.113 427.244 218.785V233.657Z" fill="#99CFFF"/>
<path d="M427.423 218.845C427.423 218.845 427.184 218.965 426.766 219.204C426.348 219.383 425.691 219.681 424.855 219.92C424.019 220.159 423.003 220.398 421.869 220.637C420.734 220.816 419.48 220.936 418.166 220.936C416.852 220.936 415.597 220.816 414.463 220.637C413.328 220.458 412.313 220.219 411.476 219.98C410.64 219.741 409.983 219.502 409.565 219.263C409.147 219.084 408.908 218.965 408.908 218.905C408.908 218.845 409.924 219.263 411.596 219.681C412.432 219.92 413.447 220.099 414.522 220.279C415.657 220.458 416.911 220.518 418.166 220.518C419.48 220.518 420.734 220.398 421.809 220.219C422.944 220.04 423.899 219.801 424.735 219.562C426.408 219.204 427.423 218.785 427.423 218.845Z" fill="#263238"/>
<path d="M415 233.657C414.94 233.657 414.821 230.79 414.821 227.266C414.821 223.743 414.881 220.876 415 220.876C415.119 220.876 415.179 223.743 415.179 227.266C415.179 230.79 415.119 233.657 415 233.657Z" fill="#263238"/>
<path d="M418.464 233.717C418.405 233.717 418.285 230.85 418.285 227.326C418.285 223.802 418.345 220.936 418.464 220.936C418.524 220.936 418.643 223.802 418.643 227.326C418.643 230.85 418.584 233.717 418.464 233.717Z" fill="#263238"/>
<path d="M421.928 233.657C421.869 233.657 421.749 230.79 421.749 227.266C421.749 223.743 421.809 220.876 421.928 220.876C422.048 220.876 422.108 223.743 422.108 227.266C422.108 230.79 422.048 233.657 421.928 233.657Z" fill="#263238"/>
<path d="M424.855 233.657C424.795 233.657 424.676 230.551 424.676 226.729C424.676 222.906 424.735 219.801 424.855 219.801C424.915 219.801 425.034 222.906 425.034 226.729C424.974 230.551 424.915 233.657 424.855 233.657Z" fill="#263238"/>
<path d="M411.716 233.597C411.656 233.597 411.536 230.492 411.536 226.669C411.536 222.847 411.596 219.741 411.716 219.741C411.775 219.741 411.895 222.847 411.895 226.669C411.895 230.492 411.835 233.597 411.716 233.597Z" fill="#263238"/>
<path d="M462.489 349.013C487.632 323.87 487.632 283.104 462.489 257.961C437.346 232.818 396.581 232.818 371.437 257.961C346.294 283.104 346.294 323.87 371.437 349.013C396.581 374.156 437.346 374.156 462.489 349.013Z" fill="#99CFFF"/>
<path d="M416.972 357.109C446.856 357.109 471.083 332.883 471.083 302.998C471.083 273.113 446.856 248.887 416.972 248.887C387.087 248.887 362.861 273.113 362.861 302.998C362.861 332.883 387.087 357.109 416.972 357.109Z" fill="white"/>
<path d="M471.083 302.998C471.083 302.998 471.083 302.699 471.023 302.102C470.963 301.505 471.023 300.669 470.903 299.534C470.784 297.264 470.366 293.92 469.351 289.799C468.813 287.708 468.156 285.439 467.141 282.99C466.185 280.541 464.931 277.973 463.378 275.405C460.272 270.209 455.793 264.714 449.641 260.056C446.595 257.726 443.131 255.636 439.309 253.904C435.486 252.172 431.365 250.798 426.886 249.962C422.466 249.126 417.748 248.827 412.97 249.186C410.581 249.305 408.132 249.723 405.743 250.201C403.354 250.738 400.905 251.395 398.516 252.232C389.02 255.696 379.942 262.086 373.432 271.045C371.759 273.255 370.326 275.644 369.012 278.152C368.355 279.407 367.758 280.661 367.22 281.975C366.683 283.289 366.145 284.603 365.727 285.976C364.831 288.664 364.115 291.471 363.697 294.338C363.219 297.205 363.04 300.072 362.98 302.998C362.98 305.925 363.219 308.851 363.697 311.658C364.115 314.525 364.891 317.272 365.727 320.02C366.145 321.393 366.683 322.707 367.22 324.021C367.818 325.335 368.355 326.59 369.012 327.844C370.326 330.352 371.759 332.741 373.432 334.951C379.942 343.91 389.02 350.301 398.516 353.765C400.905 354.601 403.294 355.317 405.743 355.795C408.192 356.273 410.581 356.691 412.97 356.811C417.748 357.169 422.466 356.87 426.886 356.034C431.306 355.258 435.486 353.824 439.309 352.092C443.131 350.36 446.595 348.27 449.641 345.941C455.733 341.282 460.213 335.847 463.378 330.591C464.931 327.963 466.185 325.395 467.141 323.006C468.156 320.617 468.813 318.288 469.351 316.197C470.366 312.017 470.784 308.672 470.903 306.462C471.023 305.327 470.963 304.491 471.023 303.894C471.023 303.297 471.083 302.998 471.083 302.998C471.083 302.998 471.083 303.297 471.083 303.894C471.083 304.491 471.083 305.327 471.023 306.462C470.903 308.732 470.545 312.076 469.53 316.257C468.992 318.347 468.335 320.617 467.32 323.066C466.364 325.515 465.17 328.083 463.557 330.711C460.452 335.966 455.972 341.461 449.82 346.12C446.774 348.449 443.31 350.599 439.488 352.331C435.666 354.063 431.485 355.497 427.005 356.273C422.526 357.109 417.867 357.408 413.03 357.049C410.641 356.93 408.192 356.512 405.743 356.034C403.294 355.497 400.905 354.84 398.516 353.944C388.96 350.48 379.822 344.029 373.312 335.011C371.64 332.801 370.207 330.412 368.893 327.904C368.236 326.649 367.638 325.335 367.041 324.081C366.504 322.767 365.966 321.453 365.548 320.08C364.652 317.332 363.935 314.585 363.458 311.658C362.98 308.791 362.741 305.865 362.741 302.938C362.741 300.012 362.98 297.085 363.458 294.218C363.876 291.352 364.652 288.545 365.548 285.797C365.966 284.424 366.504 283.11 367.041 281.796C367.638 280.482 368.176 279.227 368.893 277.973C370.207 275.465 371.64 273.076 373.312 270.866C379.882 261.907 388.96 255.397 398.516 251.993C400.905 251.157 403.354 250.44 405.743 249.902C408.192 249.424 410.581 249.006 413.03 248.887C417.867 248.529 422.586 248.827 427.005 249.663C431.485 250.5 435.666 251.873 439.488 253.605C443.31 255.337 446.774 257.487 449.82 259.817C455.972 264.535 460.452 269.97 463.557 275.226C465.11 277.854 466.364 280.422 467.32 282.871C468.335 285.319 468.992 287.589 469.53 289.679C470.545 293.86 470.903 297.205 471.023 299.474C471.142 300.609 471.083 301.445 471.083 302.042C471.083 302.699 471.083 302.998 471.083 302.998Z" fill="#263238"/>
<path d="M463.139 301.027C461.407 301.087 460.033 301.027 460.033 300.908C460.033 300.728 461.407 300.549 463.139 300.43C464.871 300.31 466.245 300.37 466.245 300.549C466.245 300.728 464.871 300.967 463.139 301.027Z" fill="#263238"/>
<path d="M462.004 313.45C460.332 313.032 459.018 312.614 459.018 312.494C459.078 312.375 460.451 312.494 462.124 312.912C463.796 313.271 465.11 313.689 465.11 313.868C465.05 314.047 463.676 313.868 462.004 313.45Z" fill="#263238"/>
<path d="M457.525 325.156C456.032 324.32 454.837 323.544 454.957 323.424C455.016 323.305 456.33 323.842 457.824 324.619C459.317 325.395 460.511 326.231 460.392 326.351C460.332 326.53 459.018 325.992 457.525 325.156Z" fill="#263238"/>
<path d="M450.059 335.19C448.805 333.995 447.909 332.92 448.029 332.801C448.148 332.682 449.223 333.577 450.477 334.712C451.732 335.907 452.628 336.982 452.508 337.101C452.389 337.28 451.314 336.385 450.059 335.19Z" fill="#263238"/>
<path d="M440.204 342.895C439.368 341.401 438.771 340.147 438.89 340.087C439.01 340.028 439.846 341.163 440.742 342.596C441.637 344.089 442.235 345.343 442.056 345.403C441.936 345.522 441.1 344.388 440.204 342.895Z" fill="#263238"/>
<path d="M428.678 347.673C428.259 346 428.021 344.627 428.14 344.567C428.26 344.507 428.797 345.821 429.215 347.493C429.693 349.166 429.932 350.539 429.753 350.599C429.573 350.659 429.096 349.345 428.678 347.673Z" fill="#263238"/>
<path d="M416.255 349.166C416.255 347.434 416.434 346.06 416.553 346.06C416.733 346.06 416.852 347.434 416.852 349.166C416.852 350.898 416.733 352.271 416.553 352.271C416.374 352.271 416.255 350.898 416.255 349.166Z" fill="#263238"/>
<path d="M403.891 347.314C404.369 345.642 404.907 344.388 405.026 344.388C405.146 344.447 404.907 345.821 404.429 347.434C403.951 349.106 403.473 350.36 403.294 350.36C403.115 350.3 403.414 348.927 403.891 347.314Z" fill="#263238"/>
<path d="M392.484 342.118C393.38 340.685 394.216 339.55 394.395 339.61C394.515 339.669 393.917 340.924 393.021 342.417C392.126 343.91 391.289 344.985 391.11 344.925C390.931 344.865 391.588 343.611 392.484 342.118Z" fill="#263238"/>
<path d="M382.868 334.115C384.123 332.98 385.257 332.084 385.377 332.204C385.496 332.323 384.541 333.338 383.286 334.533C382.032 335.727 380.897 336.564 380.778 336.444C380.658 336.325 381.614 335.309 382.868 334.115Z" fill="#263238"/>
<path d="M375.761 323.842C377.314 323.066 378.568 322.528 378.687 322.707C378.747 322.827 377.553 323.603 376.06 324.38C374.566 325.156 373.252 325.694 373.133 325.515C373.073 325.395 374.208 324.619 375.761 323.842Z" fill="#263238"/>
<path d="M371.7 312.017C373.372 311.658 374.805 311.539 374.805 311.658C374.865 311.778 373.491 312.196 371.819 312.554C370.147 312.912 368.773 313.092 368.713 312.912C368.654 312.793 369.968 312.375 371.7 312.017Z" fill="#263238"/>
<path d="M370.923 299.534C372.655 299.654 374.029 299.892 374.029 300.012C374.029 300.191 372.596 300.191 370.923 300.131C369.191 300.012 367.818 299.833 367.818 299.654C367.818 299.474 369.191 299.415 370.923 299.534Z" fill="#263238"/>
<path d="M373.492 287.35C375.104 287.947 376.358 288.545 376.299 288.664C376.239 288.783 374.865 288.485 373.253 287.888C371.64 287.35 370.386 286.753 370.446 286.574C370.505 286.394 371.879 286.753 373.492 287.35Z" fill="#263238"/>
<path d="M379.285 276.241C380.658 277.256 381.733 278.152 381.674 278.272C381.614 278.391 380.36 277.734 378.926 276.719C377.493 275.763 376.478 274.808 376.537 274.688C376.657 274.569 377.911 275.226 379.285 276.241Z" fill="#263238"/>
<path d="M387.826 267.103C388.901 268.417 389.677 269.612 389.558 269.671C389.438 269.791 388.423 268.775 387.348 267.462C386.273 266.148 385.437 265.013 385.616 264.893C385.795 264.774 386.75 265.789 387.826 267.103Z" fill="#263238"/>
<path d="M398.516 260.593C399.173 262.146 399.651 263.52 399.531 263.579C399.412 263.639 398.695 262.445 397.978 260.832C397.262 259.279 396.844 257.965 396.963 257.846C397.142 257.846 397.859 259.04 398.516 260.593Z" fill="#263238"/>
<path d="M410.581 257.248C410.82 258.981 410.879 260.354 410.76 260.354C410.581 260.354 410.282 259.04 410.043 257.308C409.804 255.636 409.685 254.202 409.864 254.202C409.984 254.143 410.342 255.516 410.581 257.248Z" fill="#263238"/>
<path d="M423.063 257.189C422.824 258.921 422.526 260.235 422.406 260.235C422.227 260.235 422.287 258.801 422.526 257.129C422.705 255.397 423.004 254.083 423.183 254.083C423.362 254.083 423.302 255.457 423.063 257.189Z" fill="#263238"/>
<path d="M435.128 260.474C434.471 262.027 433.814 263.281 433.634 263.221C433.515 263.161 433.933 261.847 434.59 260.235C435.247 258.622 435.904 257.428 436.083 257.487C436.203 257.547 435.785 258.921 435.128 260.474Z" fill="#263238"/>
<path d="M445.878 266.924C444.803 268.238 443.848 269.253 443.728 269.194C443.609 269.074 444.385 267.939 445.4 266.566C446.476 265.192 447.431 264.177 447.551 264.296C447.67 264.416 446.953 265.55 445.878 266.924Z" fill="#263238"/>
<path d="M454.479 276.002C453.105 277.018 451.911 277.734 451.791 277.615C451.672 277.495 452.747 276.54 454.121 275.524C455.494 274.509 456.689 273.792 456.808 273.912C456.928 274.031 455.853 274.987 454.479 276.002Z" fill="#263238"/>
<path d="M460.332 287.051C458.719 287.649 457.346 288.007 457.286 287.888C457.226 287.768 458.48 287.111 460.093 286.514C461.706 285.917 463.02 285.558 463.139 285.678C463.199 285.797 461.944 286.454 460.332 287.051Z" fill="#263238"/>
<path d="M463.02 299.235C461.287 299.355 459.914 299.355 459.914 299.235C459.914 299.056 461.287 298.817 462.96 298.698C464.692 298.519 466.066 298.519 466.066 298.698C466.125 298.877 464.752 299.116 463.02 299.235Z" fill="#263238"/>
<path d="M396.008 244.467C396.008 244.467 395.948 244.527 395.829 244.527C395.709 244.587 395.53 244.647 395.291 244.766C394.813 244.945 394.097 245.184 393.201 245.602C391.349 246.379 388.781 247.573 385.735 249.365C384.182 250.261 382.57 251.276 380.897 252.471C379.225 253.725 377.433 255.039 375.701 256.592C372.177 259.697 368.713 263.52 365.667 267.939C362.621 272.419 360.352 277.018 358.739 281.378C357.903 283.587 357.306 285.678 356.768 287.708C356.29 289.739 355.872 291.591 355.633 293.382C355.096 296.846 354.917 299.713 354.857 301.684C354.797 302.7 354.857 303.416 354.857 303.954C354.857 303.416 354.797 302.64 354.797 301.684C354.797 299.713 354.917 296.846 355.454 293.323C355.693 291.591 356.111 289.679 356.589 287.649C357.127 285.618 357.724 283.468 358.56 281.318C360.173 276.898 362.442 272.24 365.488 267.76C368.534 263.281 372.058 259.458 375.582 256.353C377.314 254.8 379.105 253.426 380.778 252.232C382.51 251.037 384.122 250.022 385.675 249.126C388.781 247.394 391.349 246.199 393.201 245.483C394.097 245.124 394.873 244.885 395.351 244.706C395.59 244.647 395.769 244.587 395.888 244.527C395.888 244.467 395.948 244.467 396.008 244.467Z" fill="white"/>
<path d="M413.925 240.944C413.925 241.003 413.209 241.063 412.074 241.182C410.939 241.302 409.326 241.481 407.594 241.72C405.862 241.959 404.25 242.198 403.115 242.377C401.98 242.556 401.264 242.676 401.264 242.616C401.264 242.556 401.98 242.377 403.115 242.138C404.25 241.899 405.862 241.66 407.594 241.421C409.326 241.182 410.939 241.063 412.134 241.003C413.209 240.944 413.925 240.944 413.925 240.944Z" fill="white"/>
<path d="M432.082 274.211C432.381 282.154 432.142 290.097 431.365 297.981C431.067 300.848 430.768 303.715 429.693 306.402C428.618 309.09 426.707 311.479 424.079 312.614C421.451 313.749 418.047 313.271 416.195 311.061L432.082 274.211Z" fill="#E0E0E0"/>
<path d="M415.777 298.698L435.486 265.61L423.601 302.998L417.509 304.79L415.777 298.698Z" fill="#FF7070"/>
<g opacity="0.4">
<path d="M435.487 265.61L420.914 299.415L423.601 302.998L435.487 265.61Z" fill="black"/>
</g>
<path d="M417.509 311.121C421.005 311.121 423.84 308.286 423.84 304.79C423.84 301.293 421.005 298.459 417.509 298.459C414.012 298.459 411.178 301.293 411.178 304.79C411.178 308.286 414.012 311.121 417.509 311.121Z" fill="#FAFAFA"/>
<path d="M423.84 304.79C423.78 304.79 423.84 304.252 423.601 303.237C423.362 302.281 422.705 300.908 421.272 299.833C420.555 299.295 419.659 298.877 418.644 298.698C417.628 298.519 416.494 298.578 415.419 298.997C414.881 299.176 414.343 299.474 413.866 299.833C413.388 300.191 412.91 300.609 412.552 301.147C411.775 302.162 411.357 303.476 411.357 304.79C411.357 306.104 411.775 307.418 412.552 308.433C412.91 308.971 413.388 309.389 413.866 309.747C414.343 310.105 414.881 310.404 415.419 310.583C416.494 311.001 417.628 311.061 418.644 310.882C419.659 310.703 420.555 310.285 421.272 309.747C422.705 308.672 423.362 307.298 423.601 306.343C423.84 305.327 423.84 304.79 423.84 304.79C423.84 304.79 423.9 305.327 423.72 306.343C423.481 307.298 422.884 308.792 421.451 309.926C420.734 310.464 419.838 310.942 418.763 311.181C417.688 311.36 416.494 311.36 415.359 310.942C414.762 310.762 414.224 310.464 413.746 310.046C413.209 309.687 412.731 309.21 412.373 308.672C411.596 307.597 411.118 306.223 411.118 304.85C411.118 303.416 411.596 302.102 412.373 301.027C412.731 300.49 413.209 300.012 413.746 299.654C414.284 299.295 414.821 298.997 415.359 298.758C416.494 298.34 417.688 298.28 418.763 298.519C419.838 298.698 420.734 299.176 421.451 299.773C422.884 300.908 423.541 302.341 423.72 303.357C423.959 304.252 423.84 304.79 423.84 304.79Z" fill="#263238"/>
<path d="M422.16 305.747C422.676 303.192 421.024 300.703 418.47 300.187C415.915 299.671 413.426 301.323 412.91 303.877C412.394 306.432 414.046 308.921 416.6 309.437C419.154 309.953 421.644 308.301 422.16 305.747Z" fill="#455A64"/>
<path d="M103.633 313.232C105.567 320.936 108.155 329.365 111.761 335.918C120.811 330.561 123.704 317.162 119.965 307.206C115.744 295.768 109.165 283.502 107.662 271.845C101.014 283.53 100.231 299.876 103.633 313.232Z" fill="#6FE3B6"/>
<path d="M125.778 318.931C121.683 322.524 118.539 327.844 119.297 332.957C124.015 332.9 129.095 332.419 133.003 328.802C138.325 323.847 143.449 315.697 146.286 309.253C139.6 311.587 131.442 314.021 125.778 318.931Z" fill="#76C0CC"/>
<path d="M109.876 316.132C108.703 324.824 109.065 333.949 113.481 340.771C121.823 331.937 124.838 318.514 124.233 306.063C124.12 297.155 122.651 286.867 120.003 279.087C117.015 291.32 111.887 303.473 109.876 316.132Z" fill="#CFF6E7"/>
<path d="M98.9111 330.459C103.093 333.749 106.892 336.833 111.361 339.129C114.874 333.501 112.959 325.615 107.897 321.462C101.43 315.039 89.3702 316.561 84.8962 308.214C82.8773 317.748 92.8752 324.976 98.9111 330.459Z" fill="#0FD186"/>
<path d="M98.9042 334.32C102.292 336.165 105.627 338.289 109.095 339.879C110.04 332.361 102.77 327.048 95.8974 326.09C91.4698 325.25 85.9081 325.834 81.8155 326.933C87.5782 328.645 93.7137 331.298 98.9042 334.32Z" fill="#9FEDCF"/>
<path d="M127.864 326.347C124.864 327.806 121.965 330.783 121.515 334.084C130.216 335.985 135.257 327.711 143.693 327.78C139.666 324.332 132.58 323.987 127.864 326.347Z" fill="#3AA5B5"/>
<path d="M121.689 321.267C120.974 326.74 119.326 332.159 116.404 336.683C124.269 338.659 130.846 330.916 131.879 323.665C133.814 313.622 128.795 302.331 134.24 293.02C124.84 298.521 123.395 311.751 121.689 321.267Z" fill="#008A9F"/>
<path d="M96.6053 323.007C99.2564 330.533 101.559 334.704 106.016 338.993C119.623 324.213 103.095 304.938 91.5866 294.619C92.6261 303.87 93.8769 314.033 96.6053 323.007Z" fill="#CFF6E7"/>
<path d="M100.074 359.669H126.231C128.462 359.669 130.415 358.175 131.006 356.018L137.549 332.115C137.148 331.589 136.985 331.374 136.585 330.847H89.7207C89.3204 331.372 89.1572 331.587 88.7568 332.115L95.2995 356.018C95.8906 358.173 97.8441 359.669 100.074 359.669Z" fill="#CCE7FF"/>
<path d="M207.732 357.27H188.38V359.666H207.732V357.27Z" fill="#93B3D2"/>
<path d="M257.835 338.015H123.101C121.425 338.015 120.066 336.653 120.066 334.973V243.891C120.066 242.21 121.425 240.849 123.101 240.849H257.837C259.513 240.849 260.871 242.21 260.871 243.891V334.975C260.87 336.653 259.511 338.015 257.835 338.015Z" fill="#A0BBD7"/>
<path d="M255.748 338.015H121.012C119.336 338.015 117.978 336.653 117.978 334.973V243.891C117.979 242.21 119.338 240.849 121.012 240.849H255.748C257.424 240.849 258.782 242.21 258.782 243.891V334.975C258.782 336.653 257.424 338.015 255.748 338.015Z" fill="#C6DDF3"/>
<path d="M194.817 312.022H161.928V338.015H194.817V312.022Z" fill="#3F698F"/>
<path d="M161.928 312.022L155.492 359.666H188.38L194.817 312.022H161.928ZM178.527 334.417C178.289 336.178 176.673 337.604 174.916 337.604C173.16 337.604 171.929 336.177 172.168 334.417L172.977 328.433C173.216 326.672 174.832 325.245 176.588 325.245C178.344 325.245 179.575 326.673 179.337 328.433L178.527 334.417Z" fill="#93B3D2"/>
</g>
<path d="M286.348 50.3756L280.197 45.4015L272.37 46.702L277.345 40.5523L276.037 32.7275L282.188 37.7016L290.022 36.4011L284.679 42.4479L286.348 50.3756Z" fill="#3E479B"/>
<path d="M478.723 224.59L475.571 226.457L474.872 230.064L473.006 226.912L469.398 226.207L472.55 224.348L473.256 220.74L475.012 224.032L478.723 224.59Z" fill="url(#paint6_linear_1203_15515)"/>
<path opacity="0.5" d="M459.983 114.875L461.041 109.416L457.646 104.993L463.106 106.051L467.537 102.657L466.479 108.116L469.867 112.546L464.348 111.224L459.983 114.875Z" fill="#6FE3B6"/>
<path opacity="0.5" d="M147.104 29.5356L150.256 28.698L151.719 25.7664L152.564 28.9184L155.489 30.3878L152.336 31.2254L150.874 34.157L150.146 30.9022L147.104 29.5356Z" fill="url(#paint7_linear_1203_15515)"/>
<path opacity="0.5" d="M86.5873 54.4354L85.8598 52.3415L83.8021 51.4965L85.8965 50.7691L86.7489 48.7119L87.4765 50.8059L89.5341 51.6508L87.3662 52.3047L86.5873 54.4354Z" fill="url(#paint8_linear_1203_15515)"/>
<path d="M247.644 19.9197L245.322 13.4958L238.959 10.9591L245.383 8.63886L247.913 2.27304L250.235 8.69687L256.604 11.2369L249.954 13.3169L247.644 19.9197Z" fill="#3E479B"/>
<path d="M407.298 146.279L403.947 147.782L402.845 151.296L401.342 147.947L397.827 146.837L401.177 145.341L402.286 141.828L403.664 145.304L407.298 146.279Z" fill="url(#paint9_linear_1203_15515)"/>
<path opacity="0.5" d="M444.29 93.6406L449.533 91.7509L451.6 86.5581L453.49 91.8024L458.687 93.8764L453.443 95.7661L451.367 100.956L449.674 95.5257L444.29 93.6406Z" fill="#6FE3B6"/>
<path opacity="0.5" d="M134.092 14.3394L137.252 13.4998L138.718 10.5614L139.565 13.7208L142.497 15.1937L139.337 16.0332L137.871 18.9716L137.142 15.7092L134.092 14.3394Z" fill="url(#paint10_linear_1203_15515)"/>
<path opacity="0.5" d="M73.434 39.2975L72.7048 37.1987L70.6423 36.3517L72.7416 35.6227L73.5961 33.5606L74.3253 35.6595L76.3877 36.5064L74.2148 37.1618L73.434 39.2975Z" fill="url(#paint11_linear_1203_15515)"/>
<defs>
<radialGradient id="paint0_radial_1203_15515" cx="0" cy="0" r="1" gradientUnits="userSpaceOnUse" gradientTransform="translate(392.178 307.126) scale(47.9757 47.9757)">
<stop stop-color="#B3D6FF"/>
<stop offset="1" stop-color="#E6F2FE"/>
</radialGradient>
<linearGradient id="paint1_linear_1203_15515" x1="362.994" y1="69.0941" x2="366.3" y2="69.0941" gradientUnits="userSpaceOnUse">
<stop stop-color="#0E218A"/>
<stop offset="1" stop-color="#1F72D2"/>
</linearGradient>
<linearGradient id="paint2_linear_1203_15515" x1="369.97" y1="69.0941" x2="373.277" y2="69.0941" gradientUnits="userSpaceOnUse">
<stop stop-color="#F6462E"/>
<stop offset="1" stop-color="#FB7D42"/>
</linearGradient>
<linearGradient id="paint3_linear_1203_15515" x1="220.233" y1="51.0392" x2="222.667" y2="51.0392" gradientUnits="userSpaceOnUse">
<stop stop-color="#237C8F"/>
<stop offset="1" stop-color="#2ABDD1"/>
</linearGradient>
<linearGradient id="paint4_linear_1203_15515" x1="225.369" y1="51.0392" x2="227.802" y2="51.0392" gradientUnits="userSpaceOnUse">
<stop stop-color="#F6462E"/>
<stop offset="1" stop-color="#FB7D42"/>
</linearGradient>
<linearGradient id="paint5_linear_1203_15515" x1="230.505" y1="51.0392" x2="232.937" y2="51.0392" gradientUnits="userSpaceOnUse">
<stop stop-color="#0E218A"/>
<stop offset="1" stop-color="#1F72D2"/>
</linearGradient>
<linearGradient id="paint6_linear_1203_15515" x1="472.084" y1="228.144" x2="476.037" y2="222.657" gradientUnits="userSpaceOnUse">
<stop stop-color="#FEA235"/>
<stop offset="1" stop-color="#FFB44F"/>
</linearGradient>
<linearGradient id="paint7_linear_1203_15515" x1="153.648" y1="28.082" x2="148.941" y2="31.8422" gradientUnits="userSpaceOnUse">
<stop stop-color="#FEA235"/>
<stop offset="1" stop-color="#FFB44F"/>
</linearGradient>
<linearGradient id="paint8_linear_1203_15515" x1="85.2779" y1="50.0721" x2="88.0593" y2="53.076" gradientUnits="userSpaceOnUse">
<stop stop-color="#FEA235"/>
<stop offset="1" stop-color="#FFB44F"/>
</linearGradient>
<linearGradient id="paint9_linear_1203_15515" x1="400.285" y1="149.07" x2="404.84" y2="144.051" gradientUnits="userSpaceOnUse">
<stop stop-color="#FEA235"/>
<stop offset="1" stop-color="#FFB44F"/>
</linearGradient>
<linearGradient id="paint10_linear_1203_15515" x1="140.651" y1="12.8824" x2="135.934" y2="16.6514" gradientUnits="userSpaceOnUse">
<stop stop-color="#FEA235"/>
<stop offset="1" stop-color="#FFB44F"/>
</linearGradient>
<linearGradient id="paint11_linear_1203_15515" x1="72.1216" y1="34.924" x2="74.9095" y2="37.9349" gradientUnits="userSpaceOnUse">
<stop stop-color="#FEA235"/>
<stop offset="1" stop-color="#FFB44F"/>
</linearGradient>
<clipPath id="clip0_1203_15515">
<rect width="690.41" height="354.31" fill="white" transform="translate(0 8)"/>
</clipPath>
<clipPath id="clip1_1203_15515">
<rect width="423.616" height="350" fill="white" transform="translate(70.1919 20)"/>
</clipPath>
<clipPath id="clip2_1203_15515">
<rect width="97.1286" height="39.1212" fill="white" transform="translate(113.115 89.9952)"/>
</clipPath>
<clipPath id="clip3_1203_15515">
<rect width="170.523" height="268.212" fill="white" transform="matrix(-1 0 0 1 396.634 91.9092)"/>
</clipPath>
</defs>
</svg>
