<svg xmlns="http://www.w3.org/2000/svg" xmlns:xlink="http://www.w3.org/1999/xlink" width="700" zoomAndPan="magnify" viewBox="0 0 525 149.999998" height="200" preserveAspectRatio="xMidYMid meet" version="1.0"><defs><g/><clipPath id="ec33d58928"><path d="M 23.589844 12.824219 L 147.339844 12.824219 L 147.339844 135 L 23.589844 135 Z M 23.589844 12.824219 " clip-rule="nonzero"/></clipPath></defs><g clip-path="url(#ec33d58928)"><path fill="#ffffff" d="M 42.914062 86.496094 L 66.8125 86.496094 L 70.78125 91.882812 L 73.296875 95.300781 L 78.839844 102.824219 L 81.351562 106.238281 L 102.542969 134.992188 L 147.445312 134.992188 L 102.433594 73.90625 L 147.445312 12.824219 L 102.542969 12.824219 L 81.351562 41.582031 L 78.839844 45 L 73.296875 52.523438 L 70.78125 55.9375 L 66.8125 61.316406 L 42.914062 61.316406 L 32.539062 47.234375 L 32.539062 21.753906 L 50.628906 21.753906 L 69.0625 46.765625 L 74.605469 39.242188 L 55.132812 12.824219 L 23.617188 12.824219 L 23.617188 50.171875 L 38.398438 70.238281 L 71.324219 70.238281 L 107.046875 21.753906 L 129.789062 21.753906 L 91.359375 73.90625 L 129.789062 126.070312 L 107.046875 126.070312 L 71.324219 77.574219 L 38.398438 77.574219 L 23.617188 97.648438 L 23.617188 134.992188 L 55.132812 134.992188 L 74.605469 108.570312 L 69.0625 101.046875 L 50.628906 126.070312 L 32.539062 126.070312 L 32.539062 100.582031 Z M 42.914062 86.496094 " fill-opacity="1" fill-rule="evenodd"/></g><g fill="#ffffff" fill-opacity="1"><g transform="translate(158.79702, 110.670865)"><g><path d="M 38.546875 0 L 28.859375 0 L 28.859375 -51.296875 L 1.28125 -51.296875 L 1.28125 -60.953125 L 66.171875 -60.953125 L 66.171875 -51.296875 L 38.546875 -51.296875 Z M 38.546875 0 "/></g></g></g><g fill="#ffffff" fill-opacity="1"><g transform="translate(234.95262, 110.670865)"><g><path d="M 76.296875 0 L 8.5 0 L 8.5 -60.953125 L 76.296875 -60.953125 L 76.296875 -51.296875 L 18.1875 -51.296875 L 18.1875 -35.3125 L 69.40625 -35.3125 L 69.40625 -25.625 L 18.1875 -25.625 L 18.1875 -9.6875 L 76.296875 -9.6875 Z M 76.296875 0 "/></g></g></g><g fill="#ffffff" fill-opacity="1"><g transform="translate(326.323651, 110.670865)"><g><path d="M 59.625 0 C 64.988281 0 69.5625 -1.890625 73.34375 -5.671875 C 77.125 -9.453125 79.015625 -14.019531 79.015625 -19.375 L 69.328125 -19.375 C 69.328125 -16.6875 68.375 -14.398438 66.46875 -12.515625 C 64.570312 -10.628906 62.289062 -9.6875 59.625 -9.6875 L 25.75 -9.6875 C 23.0625 -9.6875 20.773438 -10.628906 18.890625 -12.515625 C 17.003906 -14.398438 16.0625 -16.6875 16.0625 -19.375 L 16.0625 -41.609375 C 16.0625 -44.273438 17.003906 -46.554688 18.890625 -48.453125 C 20.773438 -50.347656 23.0625 -51.296875 25.75 -51.296875 L 59.625 -51.296875 C 62.289062 -51.296875 64.570312 -50.347656 66.46875 -48.453125 C 68.375 -46.554688 69.328125 -44.273438 69.328125 -41.609375 L 79.015625 -41.609375 C 79.015625 -46.929688 77.125 -51.484375 73.34375 -55.265625 C 69.5625 -59.054688 64.988281 -60.953125 59.625 -60.953125 L 25.75 -60.953125 C 20.394531 -60.953125 15.828125 -59.054688 12.046875 -55.265625 C 8.265625 -51.484375 6.375 -46.929688 6.375 -41.609375 L 6.375 -19.375 C 6.375 -14.019531 8.265625 -9.453125 12.046875 -5.671875 C 15.828125 -1.890625 20.394531 0 25.75 0 Z M 59.625 0 "/></g></g></g><g fill="#ffffff" fill-opacity="1"><g transform="translate(420.414781, 110.670865)"><g><path d="M 79.1875 0 L 69.5 0 L 69.5 -25.671875 L 18.1875 -25.671875 L 18.1875 0 L 8.5 0 L 8.5 -60.953125 L 18.1875 -60.953125 L 18.1875 -35.3125 L 69.5 -35.3125 L 69.5 -60.953125 L 79.1875 -60.953125 Z M 79.1875 0 "/></g></g></g></svg>