<svg xmlns="http://www.w3.org/2000/svg" xmlns:xlink="http://www.w3.org/1999/xlink" width="500" zoomAndPan="magnify" viewBox="0 0 375 374.999991" height="500" preserveAspectRatio="xMidYMid meet" version="1.0"><defs><clipPath id="89bce16e4f"><path d="M 37.5 37.5 L 337.5 37.5 L 337.5 333.75 L 37.5 333.75 Z M 37.5 37.5 " clip-rule="nonzero"/></clipPath></defs><g clip-path="url(#89bce16e4f)"><path fill="#000000" d="M 84.285156 215.925781 L 142.164062 215.925781 L 151.777344 228.976562 L 157.867188 237.25 L 171.292969 255.46875 L 177.378906 263.742188 L 228.699219 333.375 L 337.449219 333.375 L 228.441406 185.4375 L 337.449219 37.5 L 228.699219 37.5 L 177.378906 107.15625 L 171.292969 115.429688 L 157.867188 133.648438 L 151.777344 141.921875 L 142.164062 154.949219 L 84.285156 154.949219 L 59.15625 120.835938 L 59.15625 59.128906 L 102.976562 59.128906 L 147.617188 119.707031 L 161.042969 101.488281 L 113.882812 37.5 L 37.550781 37.5 L 37.550781 127.960938 L 73.355469 176.550781 L 153.09375 176.550781 L 239.605469 59.128906 L 294.6875 59.128906 L 201.617188 185.4375 L 294.6875 311.769531 L 239.605469 311.769531 L 153.09375 194.324219 L 73.355469 194.324219 L 37.550781 242.9375 L 37.550781 333.375 L 113.882812 333.375 L 161.042969 269.386719 L 147.617188 251.167969 L 102.976562 311.769531 L 59.15625 311.769531 L 59.15625 250.039062 Z M 84.285156 215.925781 " fill-opacity="1" fill-rule="evenodd"/><path fill="#000000" d="M 84.285156 215.925781 L 142.164062 215.925781 L 151.777344 228.976562 L 157.867188 237.25 L 171.292969 255.46875 L 177.378906 263.742188 L 228.699219 333.375 L 337.449219 333.375 L 228.441406 185.4375 L 337.449219 37.5 L 228.699219 37.5 L 177.378906 107.15625 L 171.292969 115.429688 L 157.867188 133.648438 L 151.777344 141.921875 L 142.164062 154.949219 L 84.285156 154.949219 L 59.15625 120.835938 L 59.15625 59.128906 L 102.976562 59.128906 L 147.617188 119.707031 L 161.042969 101.488281 L 113.882812 37.5 L 37.550781 37.5 L 37.550781 127.960938 L 73.355469 176.550781 L 153.09375 176.550781 L 239.605469 59.128906 L 294.6875 59.128906 L 201.617188 185.4375 L 294.6875 311.769531 L 239.605469 311.769531 L 153.09375 194.324219 L 73.355469 194.324219 L 37.550781 242.9375 L 37.550781 333.375 L 113.882812 333.375 L 161.042969 269.386719 L 147.617188 251.167969 L 102.976562 311.769531 L 59.15625 311.769531 L 59.15625 250.039062 Z M 84.285156 215.925781 " fill-opacity="1" fill-rule="evenodd"/></g></svg>