<svg xmlns="http://www.w3.org/2000/svg" xmlns:xlink="http://www.w3.org/1999/xlink" width="700" zoomAndPan="magnify" viewBox="0 0 525 149.999998" height="200" preserveAspectRatio="xMidYMid meet" version="1.2"><defs><clipPath id="b8bc8f8c7d"><path d="M 23.589844 12.824219 L 147.339844 12.824219 L 147.339844 135 L 23.589844 135 Z M 23.589844 12.824219 "/></clipPath></defs><g id="0e6088d0a8"><g clip-rule="nonzero" clip-path="url(#b8bc8f8c7d)"><path style=" stroke:none;fill-rule:evenodd;fill:#000000;fill-opacity:1;" d="M 42.894531 86.417969 L 66.765625 86.417969 L 70.730469 91.800781 L 73.242188 95.214844 L 78.78125 102.730469 L 81.292969 106.140625 L 102.460938 134.863281 L 147.316406 134.863281 L 102.351562 73.84375 L 147.316406 12.824219 L 102.460938 12.824219 L 81.292969 41.554688 L 78.78125 44.964844 L 73.242188 52.480469 L 70.730469 55.894531 L 66.765625 61.265625 L 42.894531 61.265625 L 32.527344 47.195312 L 32.527344 21.742188 L 50.601562 21.742188 L 69.015625 46.730469 L 74.550781 39.214844 L 55.101562 12.824219 L 23.617188 12.824219 L 23.617188 50.132812 L 38.382812 70.175781 L 71.273438 70.175781 L 106.957031 21.742188 L 129.675781 21.742188 L 91.289062 73.84375 L 129.675781 125.953125 L 106.957031 125.953125 L 71.273438 77.507812 L 38.382812 77.507812 L 23.617188 97.558594 L 23.617188 134.863281 L 55.101562 134.863281 L 74.550781 108.46875 L 69.015625 100.953125 L 50.601562 125.953125 L 32.527344 125.953125 L 32.527344 100.488281 Z M 42.894531 86.417969 "/></g><g style="fill:#000000;fill-opacity:1;"><g transform="translate(158.79702, 110.670865)"><path style="stroke:none" d="M 38.546875 0 L 28.859375 0 L 28.859375 -51.296875 L 1.28125 -51.296875 L 1.28125 -60.953125 L 66.171875 -60.953125 L 66.171875 -51.296875 L 38.546875 -51.296875 Z M 38.546875 0 "/></g></g><g style="fill:#000000;fill-opacity:1;"><g transform="translate(234.952607, 110.670865)"><path style="stroke:none" d="M 76.296875 0 L 8.5 0 L 8.5 -60.953125 L 76.296875 -60.953125 L 76.296875 -51.296875 L 18.1875 -51.296875 L 18.1875 -35.3125 L 69.40625 -35.3125 L 69.40625 -25.625 L 18.1875 -25.625 L 18.1875 -9.6875 L 76.296875 -9.6875 Z M 76.296875 0 "/></g></g><g style="fill:#000000;fill-opacity:1;"><g transform="translate(326.323638, 110.670865)"><path style="stroke:none" d="M 59.625 0 C 64.988281 0 69.5625 -1.890625 73.34375 -5.671875 C 77.125 -9.453125 79.015625 -14.019531 79.015625 -19.375 L 69.328125 -19.375 C 69.328125 -16.6875 68.375 -14.398438 66.46875 -12.515625 C 64.570312 -10.628906 62.289062 -9.6875 59.625 -9.6875 L 25.75 -9.6875 C 23.0625 -9.6875 20.773438 -10.628906 18.890625 -12.515625 C 17.003906 -14.398438 16.0625 -16.6875 16.0625 -19.375 L 16.0625 -41.609375 C 16.0625 -44.273438 17.003906 -46.554688 18.890625 -48.453125 C 20.773438 -50.347656 23.0625 -51.296875 25.75 -51.296875 L 59.625 -51.296875 C 62.289062 -51.296875 64.570312 -50.347656 66.46875 -48.453125 C 68.375 -46.554688 69.328125 -44.273438 69.328125 -41.609375 L 79.015625 -41.609375 C 79.015625 -46.929688 77.125 -51.484375 73.34375 -55.265625 C 69.5625 -59.054688 64.988281 -60.953125 59.625 -60.953125 L 25.75 -60.953125 C 20.394531 -60.953125 15.828125 -59.054688 12.046875 -55.265625 C 8.265625 -51.484375 6.375 -46.929688 6.375 -41.609375 L 6.375 -19.375 C 6.375 -14.019531 8.265625 -9.453125 12.046875 -5.671875 C 15.828125 -1.890625 20.394531 0 25.75 0 Z M 59.625 0 "/></g></g><g style="fill:#000000;fill-opacity:1;"><g transform="translate(420.41475, 110.670865)"><path style="stroke:none" d="M 79.1875 0 L 69.5 0 L 69.5 -25.671875 L 18.1875 -25.671875 L 18.1875 0 L 8.5 0 L 8.5 -60.953125 L 18.1875 -60.953125 L 18.1875 -35.3125 L 69.5 -35.3125 L 69.5 -60.953125 L 79.1875 -60.953125 Z M 79.1875 0 "/></g></g></g></svg>